# xmcd
#
# Track frame offsets: 
#        150
#        2587
#        5046
#        8825
#        11536
#        14250
#        16526
#        18917
#        21519
#        24389
#        27323
#        29583
#        32670
#        35656
#        38647
#        41654
#        44667
#        47326
#        49995
#        52665
#        55562
#        58475
#        61194
#        63917
#        66680
#        69156
#
# Disc length: 978 seconds
#
# Revision: 0
# Processed by: cddbd v1.5.1PL0 Copyright (c) Steve Scherf et al.
# Submitted via: ExactAudioCopy v0.95a5
#
DISCID=4a03d01a
DTITLE=Dave Rubin - 12-Bar Blues Riffs
DYEAR=2004
DGENRE=Blues
TTITLE0=Riff 01
TTITLE1=Riff 02
TTITLE2=Riff 03
TTITLE3=Riff 04
TTITLE4=Riff 05
TTITLE5=Riff 06
TTITLE6=Riff 07
TTITLE7=Riff 08
TTITLE8=Riff 09
TTITLE9=Riff 10
TTITLE10=Riff 11
TTITLE11=Riff 12
TTITLE12=Riff 13
TTITLE13=Riff 14
TTITLE14=Riff 15
TTITLE15=Riff 16
TTITLE16=Riff 17
TTITLE17=Riff 18
TTITLE18=Riff 19
TTITLE19=Riff 20
TTITLE20=Riff 21
TTITLE21=Riff 22
TTITLE22=Riff 23
TTITLE23=Riff 24
TTITLE24=Riff 25
TTITLE25=Riff 26
EXTD=
EXTT0=
EXTT1=
EXTT2=
EXTT3=
EXTT4=
EXTT5=
EXTT6=
EXTT7=
EXTT8=
EXTT9=
EXTT10=
EXTT11=
EXTT12=
EXTT13=
EXTT14=
EXTT15=
EXTT16=
EXTT17=
EXTT18=
EXTT19=
EXTT20=
EXTT21=
EXTT22=
EXTT23=
EXTT24=
EXTT25=
PLAYORDER=
